<svg fill="none" height="256" viewBox="0 0 264 256" width="264" xmlns="http://www.w3.org/2000/svg">
    <path
        d="M212.177 89.2518C208.586 117.012 183.506 144.727 155.924 162.575C84.6436 209.075 15.7344 130.171 33.1161 101.832C46.163 73.088 86.8612 80.983 104.174 69.6832C201.479 5.72417 215.551 66.0173 212.177 89.2518Z"
        fill="#BA68C8" />
    <path
        d="M212.177 89.2518C208.586 117.012 183.506 144.727 155.924 162.575C84.6436 209.075 15.7344 130.171 33.1161 101.832C46.163 73.088 86.8612 80.983 104.174 69.6832C201.479 5.72417 215.551 66.0173 212.177 89.2518Z"
        fill="#FAFAFA" opacity="0.9" />
    <path
        d="M132 218.911C188.539 218.911 234.374 216.316 234.374 213.115C234.374 209.914 188.539 207.319 132 207.319C75.4603 207.319 29.626 209.914 29.626 213.115C29.626 216.316 75.4603 218.911 132 218.911Z"
        fill="#F5F5F5" />
    <path d="M131.979 184.858H57.0029L52.9004 67.9322H127.876L131.979 184.858Z" fill="#BA68C8" />
    <path d="M135.723 181.228H60.7465L56.6387 64.3021H131.615L135.723 181.228Z" fill="#BA68C8" />
    <path d="M135.723 181.228H60.7465L56.6387 64.3021H131.615L135.723 181.228Z" fill="white"
        opacity="0.3" />
    <path
        d="M110.602 112.417C118.629 104.498 118.288 91.5492 109.839 83.4951C101.39 75.441 88.0324 75.3313 80.0046 83.2501C71.9768 91.169 72.3184 104.118 80.7675 112.172C89.2166 120.226 102.574 120.336 110.602 112.417Z"
        fill="#BA68C8" />
    <path
        d="M112.712 97.8381C112.82 100.624 112.193 103.391 110.891 105.876C109.485 108.555 107.337 110.801 104.688 112.362C102.04 113.923 98.9948 114.737 95.8954 114.714C92.7232 114.697 89.6113 113.872 86.8719 112.321C84.1324 110.77 81.8618 108.547 80.2878 105.876C78.8201 103.429 78.0002 100.668 77.9012 97.8381C77.8038 95.6442 78.1674 93.454 78.9699 91.4006C79.7724 89.3472 80.997 87.4734 82.5694 85.8932C84.1418 84.3129 86.029 83.0591 88.1166 82.208C90.2041 81.3569 92.4483 80.9262 94.7127 80.9421C99.3778 80.9741 103.851 82.7475 107.203 85.8939C110.555 89.0403 112.528 93.3178 112.712 97.8381Z"
        fill="white" />
    <path
        d="M110.88 105.876C109.474 108.555 107.326 110.801 104.678 112.362C102.029 113.923 98.9842 114.737 95.8848 114.714C92.7126 114.697 89.6007 113.872 86.8612 112.321C84.1218 110.77 81.8511 108.547 80.2771 105.876C84.7425 102.924 90.0263 101.355 95.4307 101.376C100.922 101.388 106.291 102.951 110.88 105.876Z"
        fill="#BA68C8" opacity="0.6" />
    <path
        d="M100.728 97.4171C103.68 94.5052 103.554 89.7439 100.447 86.7823C97.3405 83.8207 92.4289 83.7804 89.477 86.6922C86.5251 89.6041 86.6507 94.3654 89.7575 97.327C92.8643 100.289 97.7759 100.329 100.728 97.4171Z"
        fill="#BA68C8" opacity="0.6" />
    <path d="M120.659 138.885H72.8323L72.5103 129.669H120.336L120.659 138.885Z" fill="white" />
    <path d="M121.24 155.356H73.408L73.0859 146.14H120.917L121.24 155.356Z" fill="white" />
    <path
        d="M102.781 147.41L91.2544 148.946C91.1444 148.958 91.0382 148.992 90.9425 149.046C90.8468 149.1 90.7636 149.172 90.6981 149.259C90.6326 149.345 90.5864 149.444 90.5621 149.549C90.5379 149.654 90.5363 149.762 90.5574 149.868L92.0728 157.358C92.1224 157.578 92.255 157.772 92.4446 157.902C92.6341 158.031 92.8669 158.088 93.0971 158.06L104.623 156.524C104.733 156.51 104.839 156.475 104.934 156.42C105.029 156.366 105.112 156.293 105.176 156.206C105.241 156.119 105.287 156.02 105.311 155.915C105.335 155.81 105.336 155.702 105.315 155.597L103.805 148.106C103.755 147.887 103.623 147.693 103.433 147.564C103.243 147.435 103.01 147.38 102.781 147.41ZM99.4701 154.998L97.3581 155.269L97.1522 152.852C96.9345 152.761 96.7427 152.621 96.593 152.442C96.4432 152.264 96.3398 152.054 96.2915 151.828C96.2527 151.654 96.2521 151.474 96.2897 151.299C96.3273 151.125 96.4022 150.959 96.5097 150.815C96.6172 150.67 96.7549 150.549 96.9137 150.459C97.0726 150.369 97.2492 150.312 97.432 150.292C97.807 150.246 98.1865 150.337 98.4954 150.548C98.8044 150.76 99.0203 151.076 99.1005 151.434C99.1462 151.651 99.1322 151.875 99.0599 152.084C98.9876 152.294 98.8595 152.481 98.6886 152.627L99.4701 154.998Z"
        fill="#BA68C8" />
    <path
        d="M101.64 147.005C101.436 147.031 101.23 146.981 101.062 146.866C100.894 146.752 100.776 146.58 100.732 146.386L100.584 145.654C100.373 144.655 99.7956 143.764 98.9587 143.146C98.1217 142.528 97.0822 142.226 96.0328 142.295C95.5033 142.324 94.9865 142.464 94.5175 142.704C94.0484 142.944 93.6382 143.279 93.3146 143.687C92.9911 144.094 92.7617 144.564 92.6422 145.066C92.5227 145.567 92.5158 146.087 92.622 146.591L92.7909 147.436C92.8106 147.529 92.8099 147.626 92.7889 147.719C92.7678 147.812 92.7269 147.9 92.6688 147.978C92.6106 148.055 92.5365 148.119 92.4511 148.167C92.3658 148.215 92.2711 148.245 92.1732 148.255C91.969 148.282 91.7616 148.234 91.593 148.119C91.4245 148.004 91.3072 147.831 91.265 147.635L91.1224 146.924C90.9775 146.258 90.9726 145.572 91.1083 144.905C91.244 144.238 91.5173 143.604 91.9118 143.042C92.3064 142.48 92.814 142.002 93.4043 141.635C93.9945 141.268 94.6551 141.02 95.3464 140.908C96.8454 140.663 98.3837 140.988 99.6421 141.815C100.901 142.642 101.782 143.906 102.105 145.347L102.274 146.186C102.293 146.281 102.292 146.379 102.27 146.473C102.248 146.567 102.206 146.656 102.146 146.733C102.086 146.811 102.01 146.875 101.923 146.922C101.836 146.969 101.74 146.997 101.64 147.005Z"
        fill="#BA68C8" />
    <path d="M113.346 168.264H82.2096L82.0037 162.263H113.135L113.346 168.264Z" fill="#BA68C8" />
    <path
        d="M98.3242 134.277C98.3335 134.496 98.2969 134.714 98.2165 134.919C98.1362 135.124 98.0138 135.311 97.8568 135.468C97.6998 135.626 97.5115 135.751 97.3032 135.835C97.0949 135.92 96.871 135.963 96.6451 135.962C96.1796 135.958 95.7332 135.781 95.3981 135.468C95.0631 135.154 94.865 134.728 94.8447 134.277C94.8354 134.058 94.872 133.84 94.9523 133.635C95.0327 133.43 95.1551 133.244 95.3121 133.086C95.4691 132.929 95.6574 132.804 95.8657 132.719C96.074 132.634 96.2978 132.591 96.5237 132.593C96.9897 132.595 97.4368 132.771 97.7721 133.085C98.1074 133.399 98.3052 133.826 98.3242 134.277Z"
        fill="#263238" />
    <path
        d="M90.816 134.277C90.826 134.496 90.7899 134.715 90.7099 134.92C90.6298 135.125 90.5075 135.312 90.3503 135.47C90.1932 135.627 90.0045 135.752 89.7959 135.837C89.5873 135.921 89.3631 135.964 89.1369 135.962C88.6719 135.958 88.2261 135.781 87.8919 135.468C87.5577 135.154 87.3607 134.728 87.3417 134.277C87.3324 134.058 87.3691 133.84 87.4494 133.635C87.5298 133.43 87.6521 133.244 87.8091 133.086C87.9661 132.929 88.1545 132.804 88.3627 132.719C88.571 132.634 88.7949 132.591 89.0208 132.593C89.4862 132.595 89.9327 132.771 90.2672 133.085C90.6017 133.399 90.7983 133.826 90.816 134.277Z"
        fill="#263238" />
    <path
        d="M83.3553 134.277C83.3646 134.496 83.328 134.714 83.2476 134.919C83.1673 135.124 83.0449 135.311 82.8879 135.468C82.7309 135.626 82.5426 135.751 82.3343 135.835C82.126 135.92 81.9021 135.963 81.6763 135.962C81.2108 135.959 80.7643 135.783 80.4298 135.469C80.0953 135.155 79.8987 134.728 79.8811 134.277C79.8718 134.058 79.9084 133.84 79.9887 133.635C80.0691 133.43 80.1914 133.244 80.3484 133.086C80.5054 132.929 80.6938 132.804 80.9021 132.719C81.1103 132.634 81.3342 132.591 81.5601 132.593C82.0255 132.595 82.4721 132.771 82.8065 133.085C83.141 133.399 83.3376 133.826 83.3553 134.277Z"
        fill="#263238" />
    <path
        d="M105.806 134.277C105.815 134.496 105.778 134.714 105.698 134.919C105.618 135.124 105.495 135.311 105.338 135.468C105.181 135.626 104.993 135.751 104.785 135.835C104.577 135.92 104.353 135.963 104.127 135.962C103.661 135.959 103.215 135.783 102.88 135.469C102.546 135.155 102.349 134.728 102.332 134.277C102.324 134.059 102.362 133.841 102.443 133.638C102.524 133.434 102.648 133.249 102.805 133.093C102.962 132.937 103.151 132.813 103.359 132.73C103.567 132.647 103.791 132.605 104.016 132.608C104.478 132.611 104.921 132.786 105.254 133.097C105.587 133.407 105.784 133.83 105.806 134.277Z"
        fill="#263238" />
    <path
        d="M113.288 134.277C113.298 134.496 113.262 134.715 113.182 134.92C113.101 135.125 112.979 135.312 112.822 135.47C112.665 135.627 112.476 135.752 112.268 135.837C112.059 135.921 111.835 135.964 111.609 135.962C111.144 135.958 110.698 135.781 110.364 135.468C110.029 135.154 109.832 134.728 109.813 134.277C109.804 134.058 109.841 133.84 109.921 133.635C110.001 133.43 110.124 133.244 110.281 133.086C110.438 132.929 110.626 132.804 110.834 132.719C111.043 132.634 111.267 132.591 111.492 132.593C111.958 132.595 112.404 132.771 112.739 133.085C113.073 133.399 113.27 133.826 113.288 134.277Z"
        fill="#263238" />
    <path
        d="M176.304 89.2314C177.007 90.327 177.593 91.3715 178.195 92.4621C178.796 93.5526 179.34 94.6483 179.874 95.7696C180.962 98.04 181.862 100.391 182.566 102.799C182.661 103.101 182.73 103.424 182.809 103.736L182.925 104.212L182.983 104.448L183.052 104.837C183.171 105.72 183.116 106.616 182.888 107.479C182.524 108.818 181.97 110.102 181.241 111.293C179.938 113.459 178.363 115.459 176.552 117.248L174.33 115.62C175.445 113.631 176.438 111.579 177.302 109.476C177.687 108.549 177.958 107.582 178.11 106.593C178.159 106.291 178.144 105.983 178.068 105.687L177.857 105.062C177.772 104.806 177.693 104.55 177.593 104.289C176.79 102.177 175.86 100.112 174.81 98.1043C173.754 96.0563 172.619 94.0083 171.484 92.0525L176.304 89.2314Z"
        fill="#FF8B7B" />
    <path
        d="M174.895 114.908L172.466 116.152L175.254 119.316C175.254 119.316 176.996 118.175 177.075 116.434L174.895 114.908Z"
        fill="#FF8B7B" />
    <path d="M169.208 118.103L172.191 120.402L175.254 119.316L172.466 116.152L169.208 118.103Z"
        fill="#FF8B7B" />
    <path
        d="M159.007 72.4787C158.949 72.7654 158.743 72.9651 158.553 72.9293C158.363 72.8935 158.252 72.6272 158.31 72.3456C158.368 72.064 158.574 71.8336 158.769 71.895C158.965 71.9565 159.065 72.192 159.007 72.4787Z"
        fill="#263238" />
    <path
        d="M158.77 72.9702C158.238 73.7722 157.595 74.4993 156.858 75.1309C157.032 75.3057 157.243 75.4419 157.476 75.5303C157.71 75.6187 157.96 75.6571 158.21 75.6429L158.77 72.9702Z"
        fill="#FF5652" />
    <path
        d="M157.819 83.0157V79.657L162.402 80.169C162.402 80.169 162.328 83.0566 159.762 83.9066L157.819 83.0157Z"
        fill="#FF8B7B" />
    <path d="M159.139 77.2403L162.365 78.1414L162.423 80.1946L157.84 79.657L159.139 77.2403Z"
        fill="#FF8B7B" />
    <path
        d="M162.365 78.1414L159.139 77.2403L158.511 78.4077C158.545 79.3275 158.841 80.2201 159.367 80.9865C159.893 81.7529 160.627 82.3631 161.489 82.7494C162.043 81.9987 162.367 81.1112 162.423 80.1894L162.365 78.1414Z"
        fill="black" opacity="0.2" />
    <path
        d="M160.411 71.1117C160.445 71.1108 160.478 71.1006 160.506 71.0824C160.534 71.0642 160.557 71.0386 160.571 71.0086C160.584 70.9786 160.589 70.9455 160.584 70.913C160.58 70.8805 160.565 70.85 160.543 70.825C160.358 70.6219 160.125 70.4648 159.864 70.3668C159.603 70.2688 159.322 70.2328 159.044 70.2618C158.998 70.2693 158.958 70.294 158.931 70.3304C158.904 70.3669 158.894 70.4122 158.901 70.4563C158.909 70.5007 158.934 70.5405 158.972 70.5673C159.009 70.594 159.056 70.6056 159.102 70.5997C159.322 70.5787 159.545 70.6091 159.75 70.6884C159.956 70.7677 160.139 70.8935 160.285 71.0554C160.301 71.0725 160.32 71.0863 160.342 71.0959C160.364 71.1056 160.387 71.111 160.411 71.1117Z"
        fill="#263238" />
    <path
        d="M167.159 77.6602C166.631 80.297 166.304 83.9475 168.215 85.7037C168.215 85.7037 167.476 88.3763 162.407 88.3763C156.858 88.3763 159.741 86.0314 159.741 86.0314C162.048 85.335 162.027 82.7904 161.499 80.7424L167.159 77.6602Z"
        fill="#FF8B7B" />
    <path
        d="M169.245 87.465C169.741 86.7891 169.72 84.6438 169.192 84.265C168.342 83.6557 164.694 83.5123 159.789 84.608C160.317 86.6867 159.181 87.7721 159.181 87.7721L169.245 87.465Z"
        fill="#BA68C8" />
    <path
        d="M185.75 209.019C185.6 209.07 185.44 209.092 185.28 209.084C185.121 209.075 184.965 209.035 184.821 208.968C184.767 208.919 184.729 208.854 184.714 208.784C184.699 208.713 184.707 208.64 184.737 208.573C184.753 208.518 184.782 208.467 184.821 208.424C184.861 208.38 184.909 208.346 184.964 208.323C185.465 208.087 186.616 208.543 186.669 208.563C186.685 208.569 186.698 208.58 186.708 208.594C186.717 208.607 186.722 208.624 186.722 208.64C186.722 208.656 186.717 208.673 186.709 208.687C186.701 208.701 186.689 208.713 186.674 208.722C186.377 208.849 186.067 208.948 185.75 209.019ZM185.143 208.44C185.108 208.448 185.075 208.46 185.043 208.476C185.01 208.488 184.98 208.507 184.956 208.532C184.933 208.557 184.915 208.587 184.906 208.62C184.858 208.773 184.906 208.824 184.937 208.84C185.138 209.004 185.877 208.84 186.4 208.65C186.002 208.491 185.573 208.419 185.143 208.44Z"
        fill="#BA68C8" />
    <path
        d="M186.653 208.727H186.611C186.188 208.609 185.291 207.99 185.28 207.585C185.28 207.521 185.302 207.458 185.343 207.408C185.385 207.358 185.443 207.323 185.507 207.309C185.57 207.286 185.637 207.277 185.704 207.282C185.77 207.288 185.835 207.307 185.893 207.34C186.389 207.585 186.706 208.579 186.716 208.625C186.724 208.637 186.728 208.651 186.728 208.666C186.728 208.68 186.724 208.694 186.716 208.707C186.708 208.715 186.698 208.721 186.687 208.724C186.676 208.728 186.665 208.729 186.653 208.727ZM185.597 207.452H185.555C185.449 207.488 185.449 207.539 185.449 207.565C185.449 207.805 186.051 208.292 186.505 208.486C186.394 208.2 186.151 207.631 185.829 207.462C185.758 207.431 185.677 207.427 185.602 207.452H185.597Z"
        fill="#BA68C8" />
    <path
        d="M158.326 209.623C157.851 209.623 157.391 209.556 157.238 209.352C157.198 209.297 157.177 209.232 157.177 209.165C157.177 209.098 157.198 209.032 157.238 208.978C157.268 208.928 157.309 208.884 157.357 208.85C157.405 208.816 157.46 208.791 157.518 208.778C158.136 208.614 159.435 209.331 159.488 209.362C159.504 209.37 159.517 209.382 159.524 209.398C159.532 209.414 159.534 209.432 159.53 209.449C159.528 209.466 159.52 209.483 159.508 209.496C159.495 209.509 159.479 209.517 159.461 209.521C159.087 209.587 158.707 209.622 158.326 209.623ZM157.74 208.922C157.684 208.913 157.627 208.913 157.571 208.922C157.535 208.929 157.501 208.943 157.471 208.963C157.441 208.983 157.416 209.009 157.397 209.039C157.333 209.147 157.36 209.198 157.397 209.229C157.571 209.464 158.505 209.469 159.197 209.372C158.746 209.133 158.251 208.98 157.74 208.922Z"
        fill="#BA68C8" />
    <path
        d="M159.456 209.521H159.419C158.97 209.326 158.083 208.548 158.152 208.138C158.152 208.041 158.236 207.923 158.479 207.903C158.566 207.893 158.654 207.901 158.737 207.925C158.821 207.95 158.898 207.991 158.965 208.046C159.303 208.438 159.506 208.924 159.546 209.434C159.545 209.448 159.542 209.463 159.536 209.476C159.529 209.489 159.52 209.501 159.509 209.51C159.492 209.518 159.474 209.522 159.456 209.521ZM158.548 208.061H158.495C158.337 208.061 158.326 208.133 158.326 208.154C158.284 208.399 158.886 209.014 159.345 209.28C159.305 208.869 159.133 208.481 158.854 208.169C158.767 208.097 158.656 208.059 158.542 208.061H158.548Z"
        fill="#BA68C8" />
    <path d="M163.532 209.439H159.82L159.451 201.098H163.163L163.532 209.439Z" fill="#FF8B7B" />
    <path d="M190.793 207.77L187.165 208.533L183.517 200.765L187.149 200.003L190.793 207.77Z"
        fill="#FF8B7B" />
    <path
        d="M186.812 208.179L190.893 207.324C190.964 207.309 191.039 207.319 191.104 207.35C191.169 207.382 191.221 207.434 191.252 207.498L192.667 210.478C192.705 210.55 192.724 210.63 192.724 210.711C192.724 210.792 192.704 210.871 192.666 210.943C192.628 211.015 192.572 211.077 192.505 211.125C192.437 211.172 192.359 211.203 192.276 211.215C190.851 211.487 190.138 211.553 188.348 211.927C187.245 212.163 184.752 212.751 183.226 213.069C181.701 213.386 181.178 211.968 181.774 211.707C184.441 210.524 185.55 209.485 186.273 208.517C186.404 208.344 186.595 208.224 186.812 208.179Z"
        fill="#263238" />
    <path
        d="M159.847 209.019H163.902C163.975 209.019 164.047 209.044 164.104 209.088C164.162 209.133 164.202 209.195 164.218 209.265L164.952 212.465C164.974 212.542 164.976 212.623 164.96 212.702C164.943 212.78 164.908 212.854 164.856 212.916C164.805 212.979 164.739 213.029 164.664 213.063C164.589 213.096 164.507 213.113 164.424 213.11C162.962 213.084 160.85 213.002 159.012 213.002C156.858 213.002 155.005 213.115 152.481 213.115C150.955 213.115 150.533 211.62 151.172 211.482C154.076 210.867 156.452 210.801 158.96 209.3C159.223 209.129 159.53 209.032 159.847 209.019Z"
        fill="#263238" />
    <path
        d="M174.858 86.528C178.337 87.3011 181.194 95.9181 181.194 95.9181L174.24 101.074C172.435 99.2026 171.161 96.9092 170.544 94.4179C169.314 89.9021 171.299 85.7293 174.858 86.528Z"
        fill="#BA68C8" />
    <path
        d="M174.858 86.528C178.337 87.3011 181.194 95.9181 181.194 95.9181L174.24 101.074C172.435 99.2026 171.161 96.9092 170.544 94.4179C169.314 89.9021 171.299 85.7293 174.858 86.528Z"
        fill="black" opacity="0.4" />
    <path
        d="M156.552 96.8039C155.686 97.7101 154.82 98.5191 153.912 99.3639C153.463 99.7735 153.009 100.183 152.544 100.577L151.842 101.176L151.668 101.325L151.367 101.56C151.057 101.8 150.714 101.997 150.348 102.144C149.94 102.312 149.502 102.399 149.06 102.4C148.681 102.402 148.306 102.337 147.951 102.211C147.557 102.065 147.198 101.844 146.895 101.56C146.508 101.194 146.224 100.737 146.071 100.234C145.991 99.9863 145.94 99.7304 145.918 99.4714C145.89 99.1682 145.89 98.8632 145.918 98.56C145.944 98.3143 145.976 98.0992 146.018 97.8995C146.163 97.2014 146.368 96.5163 146.631 95.8515C146.868 95.2196 147.142 94.6009 147.449 93.9981C147.787 93.3478 148.109 92.8717 148.431 92.329C149.739 90.2509 151.232 88.2876 152.893 86.4614C154.537 84.6461 156.348 82.9803 158.305 81.4848L160.248 83.4253C158.886 85.1968 157.545 87.0963 156.304 88.9651C155.069 90.8233 153.941 92.7463 152.925 94.7251C152.697 95.2064 152.397 95.7491 152.254 96.1383C152.065 96.5903 151.901 97.0517 151.763 97.5207C151.63 97.9429 151.529 98.3742 151.462 98.8109C151.458 98.8791 151.458 98.9475 151.462 99.0157C151.462 99.0567 151.462 99.0771 151.462 98.9696C151.453 98.8547 151.43 98.7412 151.393 98.6317C151.279 98.2687 151.07 97.9406 150.786 97.6794C150.534 97.4544 150.237 97.2804 149.915 97.1674C149.631 97.0632 149.331 97.0095 149.028 97.0087C148.736 97.0052 148.447 97.0592 148.178 97.1674C148.087 97.2035 147.998 97.2463 147.914 97.2954L148.114 97.1162L148.753 96.553L150.015 95.4061C150.849 94.6432 151.689 93.8291 152.481 93.0714L156.552 96.8039Z"
        fill="#FF8B7B" />
    <path
        d="M171.875 92.8563C173.765 94.6688 174.383 97.9763 174.515 100.844L174.208 101.074C172.403 99.2026 171.13 96.9092 170.512 94.4179C170.444 94.1517 170.38 93.9059 170.333 93.6141L171.875 92.8563Z"
        fill="black" opacity="0.2" />
    <path
        d="M152.861 90.112C152.101 94.0032 151.626 101.996 153.827 117.816H173.712C173.849 114.862 171.932 100.434 174.873 86.5024C172.676 86.0932 170.454 85.8213 168.221 85.6883C165.407 85.5319 162.586 85.5319 159.773 85.6883C158.843 85.7702 157.925 85.9034 157.133 86.0416C156.079 86.2208 155.107 86.7059 154.344 87.4327C153.581 88.1596 153.064 89.0939 152.861 90.112Z"
        fill="#BA68C8" />
    <path
        d="M152.861 90.112C152.101 94.0032 151.626 101.996 153.827 117.816H173.712C173.849 114.862 171.932 100.434 174.873 86.5024C172.676 86.0932 170.454 85.8213 168.221 85.6883C165.407 85.5319 162.586 85.5319 159.773 85.6883C158.843 85.7702 157.925 85.9034 157.133 86.0416C156.079 86.2208 155.107 86.7059 154.344 87.4327C153.581 88.1596 153.064 89.0939 152.861 90.112Z"
        fill="black" opacity="0.4" />
    <path
        d="M155.902 95.8822L152.312 95.0477C152.201 97.1571 152.191 99.7683 152.349 102.999C154.002 101.176 156.114 98.3296 155.902 95.8822Z"
        fill="black" opacity="0.2" />
    <path d="M159.451 201.098L159.641 205.399H163.358L163.168 201.098H159.451Z" fill="black"
        opacity="0.2" />
    <path d="M187.149 200.003L183.517 200.765L185.397 204.769L189.029 204.006L187.149 200.003Z"
        fill="black" opacity="0.2" />
    <path
        d="M168.923 73.8099C167.973 77.2608 167.592 79.3293 165.396 80.7629C162.096 82.944 157.978 80.4454 157.872 76.8C157.756 73.5078 159.334 68.4134 163.152 67.7171C163.991 67.5644 164.856 67.6214 165.666 67.8827C166.476 68.144 167.204 68.601 167.781 69.2105C168.358 69.8201 168.766 70.5622 168.966 71.3669C169.166 72.1716 169.151 73.0123 168.923 73.8099Z"
        fill="#FF8B7B" />
    <path
        d="M160.591 73.9379C160.411 73.4771 159.593 69.9085 160.364 68.9818C161.135 68.055 169.926 68.7258 171.225 69.9648C173.384 72.0128 171.885 73.856 169.525 76.2266C167.751 78.0083 167.682 80.0154 166.784 80.3226C165.2 80.8346 162.782 80.3533 162.296 78.7302C161.811 77.1072 160.591 73.9379 160.591 73.9379Z"
        fill="#263238" />
    <path
        d="M170.158 65.9046C167.054 64.6246 161.23 66.0429 158.083 65.3056C158.043 66.4403 158.428 67.5507 159.166 68.4316C159.905 69.3125 160.947 69.9044 162.101 70.0979C164.711 70.5803 167.364 70.8187 170.021 70.8096C173.474 70.656 172.798 66.9952 170.158 65.9046Z"
        fill="#263238" />
    <path
        d="M170.644 70.0723C171.778 70.1805 172.92 69.969 173.933 69.463C174.514 70.825 171.32 71.1987 170.644 70.0723Z"
        fill="#263238" />
    <path
        d="M162.281 74.0813C162.209 74.9692 161.838 75.8096 161.225 76.4723C160.411 77.3376 159.567 76.7949 159.424 75.7453C159.297 74.793 159.561 73.1853 160.554 72.7245C161.547 72.2637 162.349 73.0112 162.281 74.0813Z"
        fill="#FF8B7B" />
    <path
        d="M160.876 117.832C160.876 117.832 165.1 145.352 167.408 155.663C169.937 166.953 183.527 204.303 183.527 204.303L190.175 202.906C190.175 202.906 180.671 172.462 178.559 156.677C176.922 144.553 173.707 117.821 173.707 117.821L160.876 117.832Z"
        fill="#BA68C8" />
    <path
        d="M181.933 202.158C181.906 202.158 183.174 204.493 183.174 204.493L190.65 202.921L190.022 200.74L181.933 202.158Z"
        fill="#263238" />
    <path
        d="M163.543 127.636C168.416 128.563 167.899 146.186 167.313 155.254C165.908 148.844 163.849 136.515 162.444 127.764C162.785 127.602 163.172 127.556 163.543 127.636Z"
        fill="black" opacity="0.3" />
    <path
        d="M153.827 117.832C153.827 117.832 153.299 144.758 153.722 155.72C154.144 167.142 158.257 204.544 158.257 204.544H164.551C164.551 204.544 164.778 167.808 165.079 156.59C165.385 144.364 166.906 117.811 166.906 117.811L153.827 117.832Z"
        fill="#BA68C8" />
    <path
        d="M157.048 202.138C157.017 202.138 157.402 204.667 157.402 204.667H165.053L165.264 202.409L157.048 202.138Z"
        fill="#263238" />
    <path
        d="M160.644 91.3101C162.423 95.9642 151.964 101.448 151.964 101.448L147.433 95.8157C147.433 95.8157 150.48 89.9686 154.176 87.337C158.743 84.0909 159.287 87.767 160.644 91.3101Z"
        fill="#BA68C8" />
    <path
        d="M160.644 91.3101C162.423 95.9642 151.964 101.448 151.964 101.448L147.433 95.8157C147.433 95.8157 150.48 89.9686 154.176 87.337C158.743 84.0909 159.287 87.767 160.644 91.3101Z"
        fill="black" opacity="0.4" />
    <path
        d="M201.627 55.977C212.151 55.977 220.683 50.7047 220.683 44.201C220.683 37.6973 212.151 32.425 201.627 32.425C191.103 32.425 182.572 37.6973 182.572 44.201C182.572 50.7047 191.103 55.977 201.627 55.977Z"
        fill="#BA68C8" />
    <path
        d="M194.753 50.1299C193.497 50.126 192.284 49.6932 191.325 48.9076C190.366 48.122 189.723 47.0338 189.51 45.8342C189.3 44.5349 189.602 43.2065 190.356 42.1136C191.111 41.0206 192.262 40.2431 193.581 39.936C194.663 39.6942 195.796 39.7874 196.821 40.2025C197.845 40.6176 198.71 41.3338 199.294 42.2502L211.527 39.8029C211.997 39.703 212.489 39.7788 212.904 40.0152C213.319 40.2515 213.627 40.631 213.766 41.0778C213.83 41.3127 213.844 41.5577 213.807 41.798C213.77 42.0384 213.683 42.2688 213.551 42.4754C213.419 42.6819 213.245 42.8602 213.04 42.9993C212.834 43.1384 212.602 43.2355 212.356 43.2845L212.039 43.3459C211.992 43.3541 211.948 43.3727 211.909 43.4002C211.871 43.4277 211.84 43.4635 211.818 43.5046C211.798 43.5465 211.788 43.5918 211.788 43.6378C211.788 43.6837 211.798 43.7291 211.818 43.7709L212.034 44.3136C212.107 44.4895 212.114 44.6844 212.054 44.8648C211.994 45.0452 211.871 45.1997 211.707 45.3018C211.577 45.3795 211.467 45.485 211.386 45.6101C211.304 45.7352 211.253 45.8766 211.237 46.0237C211.221 46.1925 211.151 46.3522 211.036 46.48C210.922 46.6078 210.768 46.6972 210.598 46.7354L210.35 46.7866C210.178 46.8174 210 46.7943 209.843 46.7207C209.685 46.647 209.556 46.5266 209.473 46.377C209.364 46.1984 209.199 46.0574 209.003 45.9737C208.807 45.89 208.589 45.8677 208.379 45.91C208.169 45.9523 207.978 46.057 207.833 46.2095C207.687 46.3621 207.594 46.5548 207.567 46.761C207.553 46.9287 207.483 47.0875 207.369 47.2145C207.255 47.3415 207.103 47.4301 206.934 47.4675L206.686 47.5187C206.514 47.5487 206.336 47.5253 206.179 47.4517C206.021 47.3782 205.892 47.2583 205.809 47.1091C205.73 46.9821 205.623 46.8733 205.497 46.7902C205.37 46.7071 205.226 46.6517 205.075 46.6278C204.872 46.6041 204.685 46.5094 204.549 46.3614C204.413 46.2134 204.337 46.0223 204.336 45.824V45.2403C204.334 45.1947 204.321 45.15 204.3 45.1093C204.278 45.0687 204.248 45.0331 204.211 45.0049C204.174 44.9767 204.131 44.9566 204.085 44.946C204.039 44.9354 203.991 44.9345 203.945 44.9434L200.043 45.7216C199.884 46.7698 199.396 47.7451 198.645 48.5146C197.894 49.2842 196.916 49.8106 195.846 50.0224C195.486 50.0937 195.12 50.1297 194.753 50.1299ZM193.697 40.4019C192.499 40.6732 191.452 41.3744 190.766 42.3643C190.08 43.3542 189.807 44.5593 190.001 45.737C190.208 46.8326 190.814 47.8199 191.707 48.5205C192.6 49.221 193.722 49.5884 194.87 49.5562C196.019 49.5241 197.117 49.0944 197.967 48.3451C198.817 47.5957 199.363 46.5761 199.505 45.4707V45.2864L203.808 44.4416C203.931 44.4126 204.06 44.4107 204.184 44.4359C204.309 44.4611 204.425 44.5129 204.527 44.5874C204.628 44.6619 204.71 44.7574 204.769 44.8667C204.827 44.9761 204.86 45.0967 204.864 45.2198V45.8035C204.865 45.873 204.891 45.94 204.937 45.9931C204.983 46.0463 205.047 46.0824 205.117 46.0954C205.348 46.1274 205.568 46.21 205.761 46.3369C205.954 46.4637 206.115 46.6315 206.231 46.8275C206.259 46.8828 206.304 46.9282 206.36 46.9576C206.416 46.9869 206.48 46.9987 206.543 46.9914L206.786 46.9402C206.847 46.9248 206.902 46.8906 206.942 46.8426C206.982 46.7947 207.005 46.7355 207.008 46.6739C207.041 46.3552 207.178 46.055 207.399 45.8167C207.619 45.5783 207.913 45.4143 208.236 45.3482C208.559 45.2821 208.896 45.3173 209.197 45.4489C209.498 45.5804 209.748 45.8014 209.912 46.08C209.939 46.1348 209.983 46.1801 210.038 46.2095C210.093 46.2389 210.156 46.2509 210.218 46.2438L210.471 46.1926C210.532 46.1763 210.586 46.1417 210.624 46.0939C210.663 46.046 210.686 45.9873 210.688 45.9264C210.714 45.7016 210.793 45.4856 210.918 45.2948C211.043 45.104 211.212 44.9435 211.411 44.8256C211.469 44.7849 211.512 44.7265 211.532 44.6598C211.552 44.593 211.548 44.5216 211.522 44.457L211.306 43.9142C211.261 43.8023 211.242 43.6823 211.25 43.5626C211.258 43.4428 211.293 43.3262 211.352 43.2209C211.411 43.1156 211.494 43.0241 211.593 42.9528C211.693 42.8816 211.807 42.8322 211.929 42.8083L212.251 42.7418C212.425 42.7057 212.59 42.636 212.736 42.5366C212.882 42.4373 213.005 42.3105 213.1 42.1638C213.194 42.017 213.256 41.8534 213.284 41.6826C213.311 41.5118 213.303 41.3375 213.259 41.1699C213.156 40.8477 212.931 40.5752 212.63 40.4071C212.328 40.239 211.972 40.1878 211.633 40.2637L199.056 42.7981L198.961 42.6394C198.456 41.767 197.671 41.0779 196.726 40.6761C195.781 40.2743 194.727 40.1817 193.723 40.4122L193.697 40.4019ZM194.753 48.2253C194.097 48.2324 193.453 48.0545 192.899 47.7133C192.245 47.2965 191.759 46.6723 191.526 45.9473C191.293 45.2223 191.326 44.4412 191.62 43.7373C191.914 43.0334 192.451 42.4502 193.139 42.0871C193.827 41.7241 194.623 41.6036 195.393 41.7463C196.162 41.889 196.856 42.286 197.358 42.8696C197.859 43.4532 198.136 44.1873 198.141 44.9468C198.147 45.7063 197.88 46.4441 197.388 47.0345C196.895 47.6248 196.206 48.0312 195.439 48.1843C195.214 48.2238 194.986 48.2409 194.758 48.2355L194.753 48.2253ZM194.753 42.1786C194.556 42.1796 194.36 42.1985 194.167 42.2349C193.799 42.3109 193.45 42.4563 193.14 42.663C192.83 42.8697 192.565 43.1336 192.361 43.4395C192.156 43.7455 192.016 44.0875 191.947 44.4461C191.879 44.8047 191.884 45.1729 191.962 45.5296C192.041 45.8863 192.191 46.2245 192.404 46.525C192.617 46.8254 192.889 47.0823 193.205 47.2808C193.52 47.4792 193.873 47.6155 194.243 47.6818C194.612 47.7482 194.992 47.7432 195.36 47.6672C195.912 47.5557 196.418 47.2882 196.814 46.8984C197.209 46.5086 197.477 46.0139 197.583 45.4768C197.689 44.9396 197.629 44.384 197.41 43.8799C197.191 43.3759 196.823 42.946 196.353 42.6445C195.885 42.343 195.335 42.1843 194.774 42.1888L194.753 42.1786Z"
        fill="white" />
    <path
        d="M186.12 62.8838C189.578 62.8838 192.382 61.1509 192.382 59.0131C192.382 56.8754 189.578 55.1424 186.12 55.1424C182.662 55.1424 179.858 56.8754 179.858 59.0131C179.858 61.1509 182.662 62.8838 186.12 62.8838Z"
        fill="#BA68C8" opacity="0.6" />
    <path
        d="M176.157 64.471C177.577 64.471 178.728 63.7604 178.728 62.8838C178.728 62.0073 177.577 61.2966 176.157 61.2966C174.736 61.2966 173.585 62.0073 173.585 62.8838C173.585 63.7604 174.736 64.471 176.157 64.471Z"
        fill="#BA68C8" opacity="0.3" />
</svg>
