<svg fill="none" height="61" viewBox="0 0 61 61" width="61" xmlns="http://www.w3.org/2000/svg">
    <g clip-path="url(#clip0)">
        <path
            d="M6.25669 45.3612L27.3657 57.6285C27.8131 57.8894 28.5338 57.8894 28.9812 57.6326L61.0556 39.112C61.503 38.8552 61.503 38.4368 61.0556 38.1759L39.9466 25.9087C39.5034 25.6519 38.7826 25.6519 38.3352 25.9087L6.26084 44.4251C5.81345 44.6861 5.80931 45.1044 6.25669 45.3612Z"
            fill="#AABAFD" />
        <path
            d="M31.2011 46.6081C30.9489 46.7537 30.9503 46.991 31.201 47.1366L36.4044 50.1606C36.655 50.3062 37.0646 50.3078 37.3169 50.1622L47.5708 44.2421C47.823 44.0964 47.8215 43.8592 47.5709 43.7136L42.3675 40.6896C42.1169 40.544 41.7073 40.5424 41.455 40.688L31.2011 46.6081Z"
            fill="#2E4277" />
        <path
            d="M5.92529 44.8974L5.92944 46.1322C5.92944 46.2979 6.04127 46.4677 6.26082 46.5961L27.3698 58.8633C27.8172 59.1202 28.538 59.1202 28.9853 58.8633L61.0598 40.3469C61.2834 40.2185 61.3953 40.0487 61.3953 39.8747L61.3911 38.644C61.3911 38.8139 61.2793 38.9837 61.0556 39.1121L28.9812 57.6327C28.5338 57.8895 27.8131 57.8895 27.3657 57.6285L6.25668 45.3613C6.033 45.2329 5.92529 45.0672 5.92529 44.8974Z"
            fill="#798FFE" />
        <path
            d="M38.2727 1.48308C38.7197 1.22503 39.0832 1.43218 39.0847 1.94577L39.1418 24.5115C39.1433 25.0221 38.7821 25.6507 38.3352 25.9087L6.723 44.1583C6.27604 44.4164 5.91252 44.2062 5.91107 43.6956L5.85389 21.1299C5.85243 20.6163 6.21358 19.9907 6.66054 19.7327L38.2727 1.48308Z"
            fill="#1B2A4F" />
        <path
            d="M5.005 20.6379L5.063 43.2029C5.063 43.4555 5.15414 43.6378 5.29912 43.7207L6.14696 44.2137C6.00196 44.1309 5.91084 43.9486 5.91084 43.6959L5.85285 21.131C5.85285 20.6173 6.21324 19.9919 6.66062 19.7309L38.273 1.48338C38.4967 1.35497 38.6996 1.34256 38.8488 1.42539L38.0009 0.932332C37.8559 0.84948 37.6488 0.861891 37.4251 0.990302L5.81278 19.242C5.36539 19.4988 5.005 20.1243 5.005 20.6379Z"
            fill="#384E85" />
        <path d="M6.99487 20.8544L7.04989 42.6544L38.0009 24.7865L37.9459 2.98657L6.99487 20.8544Z"
            fill="#384E85" />
        <path d="M6.99487 20.8544L7.00411 24.5109L37.9551 6.64305L37.9459 2.98657L6.99487 20.8544Z"
            fill="#AABAFD" />
        <path
            d="M32.8426 7.31242C33.141 7.14014 33.3836 7.27247 33.3846 7.61533C33.3855 7.95818 33.1445 8.37566 32.8461 8.54794C32.5529 8.71725 32.3103 8.57898 32.3093 8.23613C32.3083 7.89326 32.5494 7.48172 32.8426 7.31242Z"
            fill="white" />
        <path
            d="M34.566 6.31732C34.8593 6.14802 35.1018 6.28034 35.1028 6.62321C35.1038 6.96606 34.8628 7.38353 34.5695 7.55283C34.2711 7.72511 34.0286 7.58684 34.0276 7.24399C34.0266 6.90113 34.2676 6.4896 34.566 6.31732Z"
            fill="white" />
        <path
            d="M36.2844 5.32536C36.5828 5.15308 36.8254 5.28541 36.8264 5.62827C36.8273 5.97112 36.5863 6.38859 36.2879 6.56088C35.9895 6.73315 35.7469 6.59489 35.746 6.25203C35.745 5.90916 35.986 5.49763 36.2844 5.32536Z"
            fill="white" />
        <path d="M12.73 43.8469L10.7039 45.0244L9.83105 44.5205L11.8571 43.343L12.73 43.8469Z"
            fill="#384E85" />
        <path d="M34.5305 31.1777L32.5016 32.3568L31.6288 31.8529L33.6576 30.6738L34.5305 31.1777Z"
            fill="#384E85" />
        <path d="M39.9806 28.0105L37.9518 29.1896L37.079 28.6856L39.1078 27.5066L39.9806 28.0105Z"
            fill="#384E85" />
        <path d="M36.3444 35.3836L34.3183 36.5611L32.5167 35.5209L34.5428 34.3435L36.3444 35.3836Z"
            fill="#384E85" />
        <path d="M46.3376 34.8391L44.3088 36.0182L42.5044 34.9764L44.5333 33.7974L46.3376 34.8391Z"
            fill="#384E85" />
        <path d="M49.0641 33.2548L47.0352 34.4339L42.9594 32.0807L44.9882 30.9016L49.0641 33.2548Z"
            fill="#384E85" />
        <path d="M42.2522 29.322L38.5113 31.496L36.7069 30.4543L40.4478 28.2803L42.2522 29.322Z"
            fill="#384E85" />
        <path d="M37.8165 31.8999L35.7876 33.079L33.9833 32.0372L36.0121 30.8582L37.8165 31.8999Z"
            fill="#384E85" />
        <path d="M44.521 30.6319L39.7657 33.3954L37.9641 32.3553L42.7194 29.5918L44.521 30.6319Z"
            fill="#384E85" />
        <path d="M39.0708 33.7992L37.0419 34.9782L35.2404 33.9381L37.2692 32.759L39.0708 33.7992Z"
            fill="#384E85" />
        <path d="M41.3424 35.1106L39.3135 36.2896L37.5092 35.2479L39.538 34.0688L41.3424 35.1106Z"
            fill="#384E85" />
        <path d="M35.0901 33.4841L33.0612 34.6632L31.2568 33.6214L33.2857 32.4424L35.0901 33.4841Z"
            fill="#384E85" />
        <path d="M31.804 32.7622L29.778 33.9397L28.9052 33.4357L30.9312 32.2583L31.804 32.7622Z"
            fill="#384E85" />
        <path d="M29.0805 34.3452L27.0516 35.5243L26.1788 35.0204L28.2077 33.8413L29.0805 34.3452Z"
            fill="#384E85" />
        <path d="M30.4421 41.4451L28.4132 42.6241L26.6089 41.5824L28.6378 40.4033L30.4421 41.4451Z"
            fill="#384E85" />
        <path d="M26.354 35.9297L24.3279 37.1071L23.4551 36.6032L25.4812 35.4258L26.354 35.9297Z"
            fill="#384E85" />
        <path d="M29.64 36.6516L27.6139 37.829L25.8096 36.7873L27.8357 35.6099L29.64 36.6516Z"
            fill="#384E85" />
        <path d="M23.6303 37.5125L21.6014 38.6915L20.7286 38.1876L22.7575 37.0085L23.6303 37.5125Z"
            fill="#384E85" />
        <path d="M26.9163 38.2346L24.8875 39.4137L23.0831 38.3719L25.112 37.1929L26.9163 38.2346Z"
            fill="#384E85" />
        <path d="M30.8943 38.5511L28.8682 39.7285L27.0667 38.6884L29.0927 37.511L30.8943 38.5511Z"
            fill="#384E85" />
        <path d="M20.9067 39.0952L18.8778 40.2743L18.005 39.7704L20.0339 38.5913L20.9067 39.0952Z"
            fill="#384E85" />
        <path d="M24.1926 39.8174L22.1637 40.9964L20.3594 39.9547L22.3882 38.7756L24.1926 39.8174Z"
            fill="#384E85" />
        <path d="M33.1658 39.8626L31.1397 41.04L29.3353 39.9982L31.3614 38.8208L33.1658 39.8626Z"
            fill="#384E85" />
        <path d="M28.1705 40.1339L26.1416 41.3129L24.3401 40.2728L26.369 39.0938L28.1705 40.1339Z"
            fill="#384E85" />
        <path d="M18.1802 40.6799L16.1514 41.859L15.2786 41.3551L17.3074 40.176L18.1802 40.6799Z"
            fill="#384E85" />
        <path d="M21.4662 41.4019L19.4373 42.5809L17.6329 41.5392L19.6618 40.3601L21.4662 41.4019Z"
            fill="#384E85" />
        <path d="M25.4469 41.7166L23.418 42.8957L21.6165 41.8556L23.6453 40.6765L25.4469 41.7166Z"
            fill="#384E85" />
        <path d="M18.7424 42.9846L16.7135 44.1637L14.9092 43.1219L16.938 41.9429L18.7424 42.9846Z"
            fill="#384E85" />
        <path d="M27.7184 43.0281L25.6895 44.2071L23.8851 43.1654L25.914 41.9863L27.7184 43.0281Z"
            fill="#384E85" />
        <path d="M22.7204 43.3011L20.6916 44.4801L18.89 43.44L20.9189 42.261L22.7204 43.3011Z"
            fill="#384E85" />
        <path d="M24.992 44.6125L22.9632 45.7916L21.1588 44.7498L23.1877 43.5708L24.992 44.6125Z"
            fill="#384E85" />
        <path d="M35.5541 41.1062L25.2347 47.1032L23.4303 46.0615L33.7497 40.0645L35.5541 41.1062Z"
            fill="#384E85" />
        <path d="M22.2683 46.1956L20.2394 47.3746L18.4351 46.3329L20.4639 45.1538L22.2683 46.1956Z"
            fill="#384E85" />
        <path d="M19.9967 44.8839L15.2442 47.6458L13.4426 46.6056L18.1952 43.8438L19.9967 44.8839Z"
            fill="#384E85" />
        <path d="M19.5417 47.78L17.5157 48.9575L15.7113 47.9157L17.7374 46.7383L19.5417 47.78Z"
            fill="#384E85" />
        <path d="M24.5398 47.5071L19.7873 50.269L17.9829 49.2272L22.7355 46.4653L24.5398 47.5071Z"
            fill="#384E85" />
        <path d="M15.4564 42.2625L13.4275 43.4415L12.5547 42.9376L14.5836 41.7585L15.4564 42.2625Z"
            fill="#384E85" />
        <path d="M37.2542 29.595L35.2253 30.774L34.3525 30.2701L36.3814 29.0911L37.2542 29.595Z"
            fill="#384E85" />
        <path d="M32.3663 35.0669L30.3374 36.2459L28.5331 35.2042L30.562 34.0251L32.3663 35.0669Z"
            fill="#384E85" />
        <path d="M38.1637 39.5893L36.1348 40.7684L34.3304 39.7267L36.3593 38.5476L38.1637 39.5893Z"
            fill="#384E85" />
        <path d="M35.8923 38.2781L33.8634 39.4571L32.0591 38.4154L34.088 37.2363L35.8923 38.2781Z"
            fill="#384E85" />
        <path d="M33.6207 36.9662L31.5918 38.1452L29.7903 37.1051L31.8191 35.926L33.6207 36.9662Z"
            fill="#384E85" />
        <path d="M43.6139 36.4219L41.585 37.6009L39.7806 36.5592L41.8095 35.3801L43.6139 36.4219Z"
            fill="#384E85" />
        <path d="M40.8875 38.0066L38.8614 39.184L37.057 38.1423L39.0831 36.9648L40.8875 38.0066Z"
            fill="#384E85" />
        <path d="M16.0159 44.5689L12.9754 46.3358L11.171 45.2941L14.2115 43.5271L16.0159 44.5689Z"
            fill="#384E85" />
        <path
            d="M9.87206 26.6164C10.2649 26.3896 10.4968 26.4392 10.6628 26.5896L10.4398 26.9511C10.2972 26.8074 10.1142 26.8191 9.89053 26.9482C9.43546 27.2109 9.14685 27.7827 9.14841 28.3324C9.14996 28.8799 9.44089 29.1216 9.89595 28.8588C10.1196 28.7297 10.3021 28.5236 10.4434 28.2204L10.6678 28.3259C10.5032 28.6694 10.2723 28.9862 9.87942 29.213C9.23766 29.5836 8.80433 29.2652 8.80225 28.5323C8.80018 27.7993 9.23031 26.9869 9.87206 26.6164Z"
            fill="#D9DDF6" />
        <path
            d="M11.3188 27.8069C11.4511 27.7305 11.5642 27.795 11.5647 27.9469C11.5651 28.1011 11.4527 28.2936 11.3204 28.37C11.1862 28.4474 11.075 28.3841 11.0746 28.2299C11.0742 28.0779 11.1846 27.8843 11.3188 27.8069Z"
            fill="#D9DDF6" />
        <path
            d="M11.4868 26.1907C11.5826 26.0258 11.5829 25.8471 11.4874 25.7916C11.3918 25.7361 11.2367 25.8248 11.1408 25.9897C11.045 26.1546 11.0447 26.3333 11.1403 26.3889C11.2358 26.4444 11.3909 26.3557 11.4868 26.1907Z"
            fill="#D9DDF6" />
        <path d="M12.063 24.3667L13.1292 27.3771L12.8667 27.5287L11.8004 24.5183L12.063 24.3667Z"
            fill="#D9DDF6" />
        <path
            d="M14.1408 22.8201L16.0021 23.883L14.1529 27.0882L13.8544 26.9181L15.4109 24.2243L13.8442 23.3337L14.1408 22.8201Z"
            fill="#D9DDF6" />
        <path d="M18.0806 23.8872L18.0828 24.6872L16.1362 25.8111L16.1339 25.0111L18.0806 23.8872Z"
            fill="#D9DDF6" />
    </g>
    <defs>
        <clipPath id="clip0">
            <rect fill="white" height="60.6" width="60.6" />
        </clipPath>
    </defs>
</svg>
