<svg fill="none" height="342" viewBox="0 0 342 342" width="342" xmlns="http://www.w3.org/2000/svg">
    <path
        d="M255.748 243.326C255.748 243.326 276.726 237.854 293.142 210.494C311.542 179.824 303.648 126.307 279.141 100.309C256.404 76.1976 206.069 71.9568 176.862 83.7216C149.263 94.8434 128.065 121.574 111.198 125.22C94.3305 128.866 73.3454 122.942 50.5477 148.018C27.75 173.093 32.7637 229.646 58.7557 248.34C84.7477 267.034 123.052 245.146 156.342 230.098C189.632 215.05 195.097 247.882 255.748 243.326Z"
        fill="#92E3A9" />
    <g opacity="0.7">
        <path
            d="M255.748 243.326C255.748 243.326 276.726 237.854 293.142 210.494C311.542 179.824 303.648 126.307 279.141 100.309C256.404 76.1976 206.069 71.9568 176.862 83.7216C149.263 94.8434 128.065 121.574 111.198 125.22C94.3305 128.866 73.3454 122.942 50.5477 148.018C27.75 173.093 32.7637 229.646 58.7557 248.34C84.7477 267.034 123.052 245.146 156.342 230.098C189.632 215.05 195.097 247.882 255.748 243.326Z"
            fill="white" opacity="0.7" />
    </g>
    <path
        d="M248.798 188.1V188.059C243.217 186.205 234.653 186.835 233.381 187.594C232.028 188.499 230.866 189.661 229.961 191.014C226.954 195.279 224.799 200.084 223.613 205.166L162.908 210.809C160.671 205.98 157.299 201.65 153.914 199.037C152.946 198.227 151.831 197.612 150.63 197.225C150.102 197.161 149.566 197.18 149.043 197.279C146.841 190.898 143.722 184.742 139.823 184.352C131.615 183.531 117.292 186.281 113.387 194.242C109.481 202.204 108.257 222.081 108.257 222.081L105.521 224.817C103.525 220.93 100.749 217.495 97.3672 214.728C96.403 213.913 95.2872 213.297 94.084 212.916C93.4 212.724 90.664 213.148 87.7981 214.085C87.6818 213.976 87.5723 213.866 87.4492 213.764C84.7132 211.472 79.1044 210.221 75.9717 216.062C72.839 221.903 76.601 232.964 78.4751 235.467C79.3853 236.746 80.5267 237.843 81.8404 238.702C84.0497 244.174 87.9964 251.151 94.0703 251.473C96.1508 251.585 98.231 251.248 100.17 250.486C102.109 249.723 103.861 248.553 105.308 247.054C109.248 242.95 109.672 237.184 108.188 231.541L108.824 230.611C108.824 230.611 110.24 232.628 115.664 231.814C117.237 231.653 118.727 231.034 119.953 230.036C122.497 236.527 126.608 243.032 133.14 244.003C135.944 244.432 138.807 244.252 141.535 243.476C144.262 242.699 146.791 241.344 148.948 239.503C150.201 238.42 151.295 237.165 152.197 235.775C155.854 235.573 159.3 233.994 161.841 231.356C164.115 228.931 165.415 225.753 165.494 222.43L173.572 221.486C178.643 223.748 184.175 224.784 189.721 224.509C195.031 224.168 200.058 221.992 203.941 218.353L222.348 216.78C222.656 223.914 225.221 230.46 231.24 234.065C233.544 235.44 236.119 236.3 238.788 236.584C241.457 236.869 244.155 236.572 246.698 235.713C255.187 232.868 257.198 220.255 257.745 212.587C258.593 200.275 254.667 189.844 248.798 188.1Z"
        fill="#263238" stroke="#263238" stroke-linecap="round" stroke-linejoin="round"
        stroke-width="0.75" />
    <path d="M136.417 240.043C135.711 240.945 134.811 241.677 133.783 242.184" stroke="white"
        stroke-linecap="round" stroke-linejoin="round" stroke-width="0.5" />
    <path d="M139.734 223.832C139.734 223.832 140.548 232.724 137.518 238.367" stroke="white"
        stroke-linecap="round" stroke-linejoin="round" stroke-width="0.5" />
    <path d="M142.135 233.654C141.362 237.074 139.823 240.392 136.841 241.862" stroke="white"
        stroke-linecap="round" stroke-linejoin="round" stroke-width="0.5" />
    <path d="M145.849 223.155C145.849 223.155 147.217 237.936 139.905 241.507" stroke="white"
        stroke-linecap="round" stroke-linejoin="round" stroke-width="0.5" />
    <path d="M148.913 222.813C148.913 222.813 150.281 237.601 142.963 241.165" stroke="white"
        stroke-linecap="round" stroke-linejoin="round" stroke-width="0.5" />
    <path d="M241.192 233.176C240.406 234.168 239.429 234.994 238.319 235.604" stroke="white"
        stroke-linecap="round" stroke-linejoin="round" stroke-width="0.5" />
    <path d="M246.691 214.714C246.691 214.714 246.254 224.831 242.499 231.267" stroke="white"
        stroke-linecap="round" stroke-linejoin="round" stroke-width="0.5" />
    <path d="M247.67 225.918C246.438 229.81 244.468 233.586 241.356 235.228" stroke="white"
        stroke-linecap="round" stroke-linejoin="round" stroke-width="0.5" />
    <path d="M252.765 213.962C252.765 213.962 252.033 230.816 244.393 234.851" stroke="white"
        stroke-linecap="round" stroke-linejoin="round" stroke-width="0.5" />
    <path d="M255.816 213.593C255.816 213.593 255.084 230.44 247.444 234.482" stroke="white"
        stroke-linecap="round" stroke-linejoin="round" stroke-width="0.5" />
    <path d="M95.9994 249.188C95.4173 250.08 94.6497 250.836 93.749 251.404" stroke="white"
        stroke-linecap="round" stroke-linejoin="round" stroke-width="0.5" />
    <path d="M97.08 234.804C97.08 234.804 99.0089 242.328 96.8337 247.587" stroke="white"
        stroke-linecap="round" stroke-linejoin="round" stroke-width="0.5" />
    <path d="M100.657 242.882C100.35 245.925 99.2894 248.99 96.6423 250.672" stroke="white"
        stroke-linecap="round" stroke-linejoin="round" stroke-width="0.5" />
    <path d="M102.853 233.34C102.853 233.34 106.068 245.823 99.5288 249.934" stroke="white"
        stroke-linecap="round" stroke-linejoin="round" stroke-width="0.5" />
    <path d="M105.74 232.601C105.74 232.601 108.961 245.084 102.415 249.202" stroke="white"
        stroke-linecap="round" stroke-linejoin="round" stroke-width="0.5" />
    <path
        d="M129.317 218.764C130.945 228.073 129.926 236.035 127.053 236.548C124.18 237.061 120.521 229.906 118.893 220.597C117.265 211.288 118.284 203.326 121.164 202.813C124.043 202.3 127.689 209.448 129.317 218.764Z"
        fill="#92E3A9" stroke="#263238" stroke-linecap="round" stroke-linejoin="round" />
    <path
        d="M127.867 218.962C128.318 222.533 127.901 225.522 126.923 225.645C125.945 225.768 124.796 222.977 124.344 219.407C123.893 215.836 124.344 212.84 125.288 212.717C126.232 212.594 127.415 215.392 127.867 218.962Z"
        fill="#92E3A9" stroke="#263238" stroke-linecap="round" stroke-linejoin="round" />
    <path d="M121.006 210.426C121.103 209.227 121.293 208.038 121.574 206.869" stroke="#263238"
        stroke-linecap="round" stroke-linejoin="round" stroke-width="0.75" />
    <path
        d="M125.541 233.189C123.648 229.399 122.295 225.363 121.519 221.199C121.004 218.253 120.796 215.261 120.897 212.273"
        stroke="#263238" stroke-linecap="round" stroke-linejoin="round" stroke-width="0.75" />
    <path
        d="M89.0622 246.43C91.1299 245.857 91.3021 239.965 89.4468 233.271C87.5914 226.576 84.4111 221.613 82.3434 222.186C80.2756 222.76 80.1034 228.651 81.9588 235.346C83.8141 242.041 86.9944 247.003 89.0622 246.43Z"
        fill="#92E3A9" stroke="#263238" stroke-linecap="round" stroke-linejoin="round" />
    <path
        d="M88.7694 233.538C89.4192 236.083 89.385 238.285 88.6874 238.463C87.9897 238.641 86.909 236.719 86.2592 234.181C85.6093 231.643 85.6436 229.427 86.3412 229.256C87.0389 229.085 88.1196 230.994 88.7694 233.538Z"
        stroke="#263238" stroke-linecap="round" stroke-linejoin="round" stroke-width="0.75" />
    <path d="M83.0376 227.977C82.9994 227.101 83.0291 226.223 83.1265 225.351" stroke="#263238"
        stroke-linecap="round" stroke-linejoin="round" stroke-width="0.75" />
    <path
        d="M88.3659 244.044C86.6555 241.471 85.3133 238.672 84.3782 235.727C83.739 233.642 83.3173 231.496 83.1196 229.325"
        stroke="#263238" stroke-linecap="round" stroke-linejoin="round" stroke-width="0.75" />
    <path
        d="M235.686 119.016C228.476 104.139 225.364 102.846 220.569 102.6C215.774 102.354 204.454 100.945 191.841 102.963C191.841 102.963 156.656 102.347 129.433 118.838C101.013 136.054 87.1825 151.178 85.2468 159.016C83.311 166.855 76.7036 187.279 73.5709 198.989C70.4382 210.699 68.3041 221.014 72.2986 230.494C74.7132 236.226 77.285 237.95 80.5887 237.923C80.0833 237.016 79.6377 236.076 79.2549 235.111C75.9717 226.979 76.3684 215.344 80.1168 214.591C83.8651 213.839 86.1018 221.63 88.3658 230.125C88.8152 231.997 89.4239 233.828 90.1852 235.597C95.7872 233.483 104.761 228.757 116.69 223.846C115.558 216.385 115.532 208.797 116.615 201.329C118.38 189.653 125.842 187.074 129.091 194.181C131.779 200.036 132.778 213.141 133.045 217.56C137.833 215.911 141.841 214.824 144.31 214.673C144.31 214.673 185.131 205.453 215.22 204.714C245.31 203.976 260.364 203.257 260.364 203.257C260.364 203.257 242.895 133.866 235.686 119.016Z"
        fill="white" />
    <path
        d="M139.488 190.795C139.488 190.795 135.35 196.458 130.316 197.669C132.094 204.195 132.826 213.853 133.052 217.505C137.327 216.035 140.959 215.002 143.448 214.701C143.811 212.567 144.03 211.206 144.03 211.206L139.488 190.795Z"
        fill="#92E3A9" />
    <path
        d="M88.5438 230.741C90.4453 230.932 91.7107 231.753 95.5753 230.788C102.415 229.085 97.4974 215.884 108.845 210.494C111.048 209.383 113.445 208.71 115.904 208.511C116.006 206.095 116.234 203.686 116.588 201.294C116.889 198.945 117.583 196.663 118.64 194.543C115.541 193.593 114.98 192.683 109.7 195.193C98.3456 200.583 100.049 214.489 93.2429 216.192C87.812 217.56 87.511 215.378 83.3865 216.39C85.3154 219.126 86.8065 224.455 88.3113 230.07C88.4276 230.323 88.4823 230.508 88.5438 230.741Z"
        fill="#92E3A9" opacity="0.2" />
    <g style="mix-blend-mode:multiply">
        <g style="mix-blend-mode:multiply" opacity="0.2">
            <path
                d="M77.374 219.051C74.1934 221.24 72.2987 224.523 71.218 227.293C71.5112 228.386 71.8721 229.46 72.2987 230.508C74.7133 236.24 77.2851 237.964 80.5888 237.936C80.0834 237.029 79.6378 236.09 79.255 235.125C77.1688 229.947 76.6079 223.36 77.374 219.051Z"
                fill="#92E3A9" />
        </g>
    </g>
    <g style="mix-blend-mode:multiply" opacity="0.2">
        <path
            d="M220.57 102.6L219.331 102.525C169.447 115.288 149.153 175.412 142.169 204.386C142.546 207.266 142.956 210.091 143.401 212.84C144.249 212.676 143.661 214.673 144.31 214.639C144.31 214.639 185.131 205.419 215.221 204.68C245.31 203.941 260.365 203.223 260.365 203.223C260.365 203.223 242.895 133.866 235.686 119.016C228.477 104.166 225.364 102.819 220.57 102.6Z"
            fill="#92E3A9" />
    </g>
    <path
        d="M235.686 119.016C228.476 104.139 225.364 102.846 220.569 102.6C215.774 102.354 204.454 100.945 191.841 102.963C191.841 102.963 156.656 102.347 129.433 118.838C101.013 136.054 87.1825 151.178 85.2468 159.016C83.311 166.855 76.7036 187.279 73.5709 198.989C70.4382 210.699 68.3041 221.014 72.2986 230.494C74.7132 236.226 77.285 237.95 80.5887 237.923C80.0833 237.016 79.6377 236.076 79.2549 235.111C75.9717 226.979 76.3684 215.344 80.1168 214.591C83.8651 213.839 86.1018 221.63 88.3658 230.125C88.8152 231.997 89.4239 233.828 90.1852 235.597C95.7872 233.483 104.761 228.757 116.69 223.846C115.558 216.385 115.532 208.797 116.615 201.329C118.38 189.653 125.842 187.074 129.091 194.181C131.779 200.036 132.778 213.141 133.045 217.56C137.833 215.911 141.841 214.824 144.31 214.673C144.31 214.673 185.131 205.453 215.22 204.714C245.31 203.976 260.364 203.257 260.364 203.257C260.364 203.257 242.895 133.866 235.686 119.016Z"
        stroke="#263238" stroke-linecap="round" stroke-linejoin="round" />
    <path
        d="M86.3687 194.092C86.8382 194.482 87.4097 194.731 88.0157 194.807C88.6217 194.883 89.2369 194.785 89.7887 194.523C91.9433 193.661 92.1621 190.419 92.1621 190.419L95.3906 190.207L96.0404 180.077L88.9268 182.874C88.9268 182.874 87.0185 192.799 86.3687 194.092Z"
        fill="#92E3A9" opacity="0.2" />
    <path
        d="M77.0388 223.716C74.9964 224.801 73.0651 226.084 71.2727 227.546C71.5563 228.548 71.8989 229.533 72.2987 230.494C74.7132 236.226 77.2851 237.95 80.5888 237.923C80.0833 237.016 79.6378 236.076 79.255 235.111C77.8528 231.472 77.1026 227.615 77.0388 223.716Z"
        fill="#263238" stroke="#263238" stroke-linecap="round" stroke-linejoin="round"
        stroke-width="0.75" />
    <path
        d="M87.9349 218.066C87.7498 218.065 87.5684 218.015 87.4095 217.919C87.2507 217.824 87.1203 217.688 87.032 217.526C86.9075 217.289 86.8808 217.014 86.9575 216.758C87.0343 216.502 87.2084 216.286 87.4424 216.158C87.6066 216.069 100.917 207.82 111.943 201.958C112.062 201.895 112.193 201.855 112.327 201.842C112.461 201.829 112.596 201.843 112.725 201.882C112.854 201.922 112.974 201.986 113.078 202.072C113.182 202.158 113.269 202.263 113.332 202.382C113.395 202.501 113.434 202.631 113.447 202.765C113.46 202.9 113.447 203.035 113.407 203.164C113.368 203.293 113.304 203.413 113.218 203.517C113.132 203.621 113.027 203.707 112.908 203.77C101.889 209.625 88.5847 217.868 88.4206 217.957C88.2708 218.034 88.1035 218.072 87.9349 218.066Z"
        fill="#263238" stroke="#263238" stroke-miterlimit="10" />
    <path
        d="M105.336 149.502L104.864 161.246C104.761 162.847 105.692 163.62 106.916 162.929L125.829 150.617C126.524 150.132 127.084 149.478 127.458 148.717C127.831 147.956 128.005 147.113 127.963 146.267L127.846 133.168C127.71 131.978 126.902 131.492 125.911 132.005C122.354 133.845 115.486 140.07 107.278 145.863C106.722 146.304 106.263 146.854 105.929 147.48C105.594 148.106 105.393 148.795 105.336 149.502Z"
        fill="#92E3A9" stroke="#263238" stroke-linecap="round" stroke-linejoin="round" />
    <path d="M118.113 146.191L127.354 148.449" stroke="#263238" stroke-linecap="round"
        stroke-linejoin="round" />
    <path d="M105.473 162.984L111.177 150.384" stroke="#263238" stroke-linecap="round"
        stroke-linejoin="round" />
    <path
        d="M105.445 149.112L113.831 150.159C114.7 150.288 115.781 149.57 116.567 148.325L127.511 132.655"
        stroke="#263238" stroke-linecap="round" stroke-linejoin="round" />
    <path
        d="M152.265 127.682L154.208 157.094C154.258 157.943 154.481 158.773 154.862 159.533C155.244 160.293 155.777 160.967 156.428 161.515C157.079 162.062 157.834 162.471 158.649 162.716C159.463 162.962 160.319 163.039 161.164 162.942L226.5 154.461C227.4 154.357 228.267 154.059 229.04 153.588C229.814 153.116 230.476 152.482 230.981 151.73C231.486 150.977 231.821 150.124 231.964 149.229C232.106 148.334 232.053 147.419 231.807 146.547L223.558 117.381C223.168 115.995 222.311 114.787 221.131 113.96C219.952 113.134 218.524 112.74 217.088 112.846C206.499 113.626 181.102 115.904 157.128 121.246C155.689 121.573 154.411 122.398 153.521 123.576C152.631 124.754 152.186 126.208 152.265 127.682Z"
        fill="#92E3A9" stroke="#263238" stroke-linecap="round" stroke-linejoin="round" />
    <path d="M200.829 136.8L230.658 150.931" stroke="#263238" stroke-linecap="round"
        stroke-linejoin="round" />
    <path d="M156.684 161.65L181.876 139.105" stroke="#263238" stroke-linecap="round"
        stroke-linejoin="round" />
    <path
        d="M152.484 126.909L188.633 141.773C189.991 142.327 191.48 142.475 192.92 142.2C194.36 141.924 195.689 141.236 196.746 140.22L222.512 115.89"
        stroke="#263238" stroke-linecap="round" stroke-linejoin="round" />
    <path
        d="M224.678 158.624C230.818 158.473 235.676 153.458 235.527 147.423C235.379 141.388 230.281 136.619 224.14 136.77C217.999 136.921 213.142 141.936 213.29 147.971C213.439 154.005 218.537 158.775 224.678 158.624Z"
        fill="#263238" stroke="#263238" stroke-linecap="round" stroke-linejoin="round"
        stroke-width="0.75" />
    <path
        d="M223.21 152.915H223.175C222.96 152.916 222.747 152.865 222.554 152.768C222.361 152.67 222.195 152.528 222.067 152.354L217.697 146.321C217.483 146.027 217.396 145.661 217.453 145.302C217.51 144.944 217.707 144.623 218.001 144.41C218.295 144.196 218.661 144.109 219.02 144.166C219.378 144.223 219.7 144.42 219.913 144.714L223.175 149.215L230.973 138.442C231.186 138.148 231.507 137.951 231.866 137.893C232.224 137.836 232.591 137.924 232.885 138.137C233.179 138.35 233.376 138.672 233.433 139.03C233.49 139.389 233.402 139.755 233.189 140.049L224.297 152.361C224.171 152.531 224.007 152.67 223.819 152.766C223.63 152.862 223.421 152.913 223.21 152.915Z"
        fill="white" stroke="#263238" stroke-linecap="round" stroke-linejoin="round" />
    <path
        d="M181.896 182.395C181.896 182.395 205.152 177.936 221.089 178.25L222.047 182.081C222.047 182.081 188.586 183.668 182.211 186.869L181.896 182.395Z"
        fill="#263238" stroke="#263238" stroke-linecap="round" stroke-linejoin="round"
        stroke-width="0.75" />
    <path
        d="M182.211 186.855L182.895 190.686C182.965 191.112 183.2 191.495 183.549 191.75C183.898 192.006 184.334 192.115 184.762 192.054C190.597 191.219 211.075 188.408 221.698 188.668C221.96 188.676 222.22 188.622 222.456 188.51C222.693 188.399 222.901 188.233 223.061 188.027C223.222 187.82 223.331 187.578 223.381 187.321C223.431 187.064 223.419 186.799 223.346 186.547L222.074 182.094"
        stroke="#263238" stroke-linecap="round" stroke-linejoin="round" />
    <path
        d="M97.3467 180.09L97.2167 164.29L98.0033 148.045C98.0092 147.89 97.9681 147.736 97.8853 147.604C97.8025 147.473 97.682 147.369 97.5394 147.307C97.3968 147.245 97.2388 147.227 97.0861 147.256C96.9333 147.286 96.7929 147.36 96.6832 147.47C93.742 150.48 88.7077 155.035 87.2166 158.77C85.2809 163.606 82.9895 187.409 82.9895 187.409L97.3467 180.09Z"
        fill="#263238" stroke="#263238" stroke-linecap="round" stroke-linejoin="round"
        stroke-width="0.75" />
    <path
        d="M79.1318 176.917H76.8404C75.6731 176.917 74.7268 177.863 74.7268 179.03V190.836C74.7268 192.003 75.6731 192.95 76.8404 192.95H79.1318C80.2991 192.95 81.2453 192.003 81.2453 190.836V179.03C81.2453 177.863 80.2991 176.917 79.1318 176.917Z"
        fill="#263238" stroke="#263238" stroke-linecap="round" stroke-linejoin="round"
        stroke-width="0.75" />
    <path
        d="M80.5752 165.891C81.6599 166.099 82.7192 166.422 83.7353 166.855C84.5777 167.27 85.3434 167.825 85.9993 168.497L89.4193 163.975C89.4193 163.975 84.4056 161.875 83.4548 160.596L82.5109 159.31L80.5752 165.891Z"
        fill="white" />
    <g style="mix-blend-mode:multiply" opacity="0.5">
        <path
            d="M83.448 160.596L82.5656 159.372L82.463 159.44L80.5752 165.87C80.5752 165.87 80.9377 165.938 81.4507 166.062L86.3413 162.518C85.2725 162.051 84.2934 161.4 83.448 160.596Z"
            fill="#92E3A9" />
    </g>
    <path
        d="M80.5752 165.891C81.6599 166.099 82.7192 166.422 83.7353 166.855C84.5777 167.27 85.3434 167.825 85.9993 168.497L89.4193 163.975C89.4193 163.975 84.4056 161.875 83.4548 160.596L82.5109 159.31L80.5752 165.891Z"
        stroke="#263238" stroke-linecap="round" stroke-linejoin="round" stroke-width="0.75" />
    <path d="M87.7981 162.053L83.6189 167.382L84.1866 169.194L90.5547 162.58L87.7981 162.053Z"
        fill="#92E3A9" stroke="#263238" stroke-linecap="round" stroke-linejoin="round" />
    <path
        d="M81.1085 146.998C78.2836 144.81 70.9237 146.205 69.4805 151.39C68.5913 154.584 69.0838 159.372 69.0838 159.372L77.4696 157.594L78.1536 158.626C79.5216 160.678 82.4833 159.31 83.2494 158.626C83.6667 158.264 83.6393 157.197 83.5299 156.315L83.865 156.239C83.865 156.239 83.9266 149.194 81.1085 146.998Z"
        fill="#263238" stroke="#263238" stroke-linecap="round" stroke-linejoin="round"
        stroke-width="0.75" />
    <path
        d="M77.9759 156.964C74.2952 156.554 70.5695 156.908 67.0319 158.004C61.5599 159.837 60.7186 161.424 64.6379 161.328C68.5572 161.232 77.9759 156.964 77.9759 156.964Z"
        fill="#263238" stroke="#263238" stroke-linecap="round" stroke-linejoin="round"
        stroke-width="0.75" />
    <path
        d="M71.218 154.974C71.8564 154.974 72.3739 154.266 72.3739 153.394C72.3739 152.521 71.8564 151.814 71.218 151.814C70.5796 151.814 70.062 152.521 70.062 153.394C70.062 154.266 70.5796 154.974 71.218 154.974Z"
        fill="#92E3A9" />
    <path
        d="M97.2168 164.29C97.2168 164.29 89.727 162.388 87.4219 164.139C85.1168 165.891 84.5286 168.784 85.2673 172.293C86.006 175.802 87.8049 185.029 87.8049 185.029L97.3467 180.09L97.2168 164.29Z"
        fill="#263238" stroke="#263238" stroke-linecap="round" stroke-linejoin="round"
        stroke-width="0.75" />
    <path
        d="M85.3289 183.558C85.3289 183.558 84.9253 187.101 84.4534 187.601C83.9814 188.1 71.5326 177.642 70.7734 176.657C70.0141 175.672 70.534 172.156 70.7734 171.055C71.0128 169.953 70.6092 169.352 69.4054 170.111C68.2015 170.87 68.523 174.03 68.523 174.03C68.523 174.03 64.8499 173.148 64.118 173.045C63.3862 172.943 62.75 173.852 62.8595 174.577C62.9689 175.302 63.9334 175.364 63.9334 175.364C63.6866 176.414 63.7556 177.513 64.1317 178.524C64.7747 179.851 65.4997 180.685 66.8677 181.014C68.2792 181.234 69.7082 181.321 71.1359 181.274C71.1359 181.274 77.4971 187.334 79.3439 189.598C81.1907 191.862 85.0826 194.94 87.0184 194.386C88.9541 193.832 90.8009 184.167 90.8009 184.167L85.3289 183.558Z"
        fill="white" />
    <g style="mix-blend-mode:multiply" opacity="0.5">
        <path
            d="M84.4533 187.601L88.0921 188.811C88.2075 189.575 88.0462 190.354 87.6373 191.009C87.2284 191.664 86.5988 192.151 85.8623 192.382C84.2549 192.915 81.3684 191.089 79.3164 189.55L79.378 189.625C81.259 191.896 85.1167 194.967 87.0524 194.413C88.9882 193.859 90.835 184.194 90.835 184.194L85.3288 183.51C85.3288 183.51 84.9252 187.101 84.4533 187.601Z"
            fill="#92E3A9" />
    </g>
    <path
        d="M85.3289 183.558C85.3289 183.558 84.9253 187.101 84.4534 187.601C83.9814 188.1 71.5326 177.642 70.7734 176.657C70.0141 175.672 70.534 172.156 70.7734 171.055C71.0128 169.953 70.6092 169.352 69.4054 170.111C68.2015 170.87 68.523 174.03 68.523 174.03C68.523 174.03 64.8499 173.148 64.118 173.045C63.3862 172.943 62.75 173.852 62.8595 174.577C62.9689 175.302 63.9334 175.364 63.9334 175.364C63.6866 176.414 63.7556 177.513 64.1317 178.524C64.7747 179.851 65.4997 180.685 66.8677 181.014C68.2792 181.234 69.7082 181.321 71.1359 181.274C71.1359 181.274 77.4971 187.334 79.3439 189.598C81.1907 191.862 85.0826 194.94 87.0184 194.386C88.9541 193.832 90.8009 184.167 90.8009 184.167L85.3289 183.558Z"
        stroke="#263238" stroke-linecap="round" stroke-linejoin="round" stroke-width="0.75" />
    <path d="M72.887 178.579L71.136 181.301L72.032 181.91L73.8241 179.345L72.887 178.579Z"
        fill="#263238" stroke="#263238" stroke-miterlimit="10" />
    <path
        d="M72.2851 181.144C72.6628 181.144 72.9691 180.837 72.9691 180.46C72.9691 180.082 72.6628 179.776 72.2851 179.776C71.9073 179.776 71.6011 180.082 71.6011 180.46C71.6011 180.837 71.9073 181.144 72.2851 181.144Z"
        fill="white" stroke="#263238" stroke-linecap="round" stroke-linejoin="round"
        stroke-width="0.75" />
    <path
        d="M70.6091 160.248C70.6091 160.248 71.0264 161.28 71.7241 163.093C72.4217 164.906 76.1701 168.729 78.0032 168.948C79.8363 169.167 82.0319 162.505 82.3808 161.13C82.4971 160.678 82.6133 159.953 82.6133 159.953C82.6133 159.953 84.9184 158.866 84.3849 157.553C83.8514 156.239 82.7707 155.637 82.2577 156.041C81.7447 156.444 81.6557 158.148 80.8897 158.161C80.1236 158.175 79.7063 157.936 79.0292 157.033C78.352 156.13 71.3342 158.004 70.6091 160.248Z"
        fill="white" />
    <path
        d="M79.0155 157.033C78.3315 156.137 71.3342 158.011 70.6091 160.248L71.0058 161.26C73.6806 159.647 76.5873 158.454 79.6243 157.724C79.3974 157.516 79.1933 157.284 79.0155 157.033Z"
        fill="#92E3A9" opacity="0.5" />
    <g style="mix-blend-mode:multiply">
        <g style="mix-blend-mode:multiply" opacity="0.5">
            <path
                d="M84.2961 157.368C83.7352 156.191 82.7434 155.658 82.2441 156.041C81.9311 156.449 81.6989 156.914 81.5601 157.409C82.4686 157.307 83.3849 157.293 84.2961 157.368Z"
                fill="#92E3A9" />
        </g>
    </g>
    <path
        d="M70.6091 160.248C70.6091 160.248 71.0264 161.28 71.7241 163.093C72.4217 164.906 76.1701 168.729 78.0032 168.948C79.8363 169.167 82.0319 162.505 82.3808 161.13C82.4971 160.678 82.6133 159.953 82.6133 159.953C82.6133 159.953 84.9184 158.866 84.3849 157.553C83.8514 156.239 82.7707 155.637 82.2577 156.041C81.7447 156.444 81.6557 158.148 80.8897 158.161C80.1236 158.175 79.7063 157.936 79.0292 157.033C78.352 156.13 71.3342 158.004 70.6091 160.248Z"
        stroke="#263238" stroke-linecap="round" stroke-linejoin="round" stroke-width="0.75" />
    <path
        d="M73.0922 160.74C73.2153 161.157 73.1743 161.54 73.0101 161.588C72.846 161.636 72.6066 161.335 72.4835 160.904C72.3603 160.473 72.4014 160.104 72.5655 160.056C72.7297 160.008 72.9691 160.336 73.0922 160.74Z"
        fill="#263238" stroke="#263238" stroke-miterlimit="10" />
    <path
        d="M71.8198 159.577C72.7774 159.304 73.1878 160.022 73.3041 160.685L73.4819 161.472L74.077 164.516L74.9799 164.133"
        stroke="#263238" stroke-linecap="round" stroke-linejoin="round" stroke-width="0.5" />
    <path
        d="M75.7188 159.81C75.9268 159.582 76.1857 159.406 76.4745 159.296C76.7633 159.187 77.0738 159.147 77.3809 159.18"
        stroke="#263238" stroke-linecap="round" stroke-linejoin="round" stroke-width="0.5" />
    <path
        d="M76.5122 157.915C76.123 157.996 75.7659 158.189 75.4842 158.47C75.2025 158.75 75.0083 159.106 74.9253 159.495"
        stroke="#263238" stroke-linecap="round" stroke-linejoin="round" stroke-width="0.5" />
    <path d="M75.7939 165.118C75.7939 165.118 77.7775 164.721 77.9349 163.298" stroke="#263238"
        stroke-linecap="round" stroke-linejoin="round" stroke-width="0.5" />
    <path
        d="M92.6341 188.688L82.6204 185.898C82.6204 185.898 83.5027 168.798 85.0486 165.904C87.4562 161.41 92.9761 163.435 94.0158 169.085C94.9871 174.42 92.6341 188.688 92.6341 188.688Z"
        fill="#92E3A9" stroke="#263238" stroke-linecap="round" stroke-linejoin="round" />
    <path d="M82.8596 183.996C82.8596 183.996 88.3316 185.255 91.6627 186.349" stroke="#263238"
        stroke-linecap="round" stroke-linejoin="round" stroke-width="0.5" />
    <path d="M91.5259 162.915C91.5259 162.915 94.7817 163.168 96.9089 164.919" stroke="#92E3A9"
        stroke-linecap="round" stroke-linejoin="round" stroke-width="0.5" />
    <path
        d="M148.9 206.657C148.9 206.657 134.317 211.801 132.983 213.203C131.649 214.605 131.786 220.077 134.933 222.738C138.079 225.399 160.507 219.366 176.54 217.608C192.573 215.85 227.772 213.264 242.136 212.567C256.5 211.869 263.032 213.764 264.291 209.283C265.549 204.803 265.392 200.015 262.656 199.044C259.92 198.073 210.07 190.09 148.9 206.657Z"
        fill="#263238" stroke="#263238" stroke-linecap="round" stroke-linejoin="round"
        stroke-width="0.75" />
    <path
        d="M131.944 216.192C131.944 216.192 132.628 222.122 136.273 223.032C139.919 223.942 183.244 215.734 208.777 214.824C234.311 213.914 256.657 213.23 256.657 213.23"
        stroke="white" stroke-linecap="round" stroke-linejoin="round" stroke-width="0.5" />
    <path d="M153.106 219.201C170.042 215.097 204.878 209.297 263.497 210.946" stroke="white"
        stroke-linecap="round" stroke-linejoin="round" stroke-width="0.5" />
    <path d="M139.221 222.813C139.221 222.813 143.113 221.869 149.03 220.255" stroke="white"
        stroke-linecap="round" stroke-linejoin="round" stroke-width="0.5" />
    <path d="M142.792 223.49C142.976 226.033 142.907 228.588 142.586 231.117" stroke="white"
        stroke-linecap="round" stroke-linejoin="round" stroke-width="0.5" />
    <path d="M142.169 114.112C142.169 114.112 138.907 117.935 138.654 121.362" stroke="#263238"
        stroke-linecap="round" stroke-linejoin="round" stroke-width="0.75" />
    <path d="M138.311 124.125C138.311 124.125 135.856 163.189 142.354 204.762" stroke="#263238"
        stroke-linecap="round" stroke-linejoin="round" stroke-width="0.75" />
    <path
        d="M139.085 169.263C139.085 169.263 133.784 171.109 133.715 173.503C133.537 179.94 134.214 193.675 135.617 195.008C137.019 196.342 141.376 192.813 141.376 192.813C141.376 192.813 147.532 193.346 148.216 191.965C148.9 190.583 146.335 171.137 145.952 169.44C145.569 167.744 139.085 169.263 139.085 169.263Z"
        fill="#92E3A9" stroke="#263238" stroke-linecap="round" stroke-linejoin="round" />
    <path
        d="M249.81 178.524C251.19 179.198 252.689 179.593 254.222 179.687C252.526 173.312 250.604 166.212 248.62 159.126C246.828 159.003 244.516 159.003 244.564 159.81C244.598 161.191 248.08 177.525 249.81 178.524Z"
        fill="#92E3A9" stroke="#263238" stroke-linecap="round" stroke-linejoin="round" />
    <path d="M138.325 171.274C138.325 171.274 138.558 183.586 139.467 188.374" stroke="#263238"
        stroke-linecap="round" stroke-linejoin="round" stroke-width="0.75" />
    <path d="M202.266 174.119C202.266 174.119 232.786 169.201 268.347 175.487" stroke="#263238"
        stroke-linecap="round" stroke-linejoin="round" />
    <path d="M295.18 193.401C297.28 194.03 299.346 194.694 301.336 195.405" stroke="#263238"
        stroke-linecap="round" stroke-linejoin="round" />
    <path d="M240.385 184.112C240.385 184.112 264.585 185.583 287.759 191.376" stroke="#263238"
        stroke-linecap="round" stroke-linejoin="round" />
    <path d="M166.732 240.467C186.658 237.422 206.902 237.061 226.924 239.393" stroke="#263238"
        stroke-linecap="round" stroke-linejoin="round" />
    <path d="M164.228 237.245C164.228 237.245 178.551 235.453 183.209 235.098" stroke="#263238"
        stroke-linecap="round" stroke-linejoin="round" />
    <path d="M260.152 104.399C262.204 104.693 264.256 105.083 266.117 105.528" stroke="#263238"
        stroke-linecap="round" stroke-linejoin="round" />
    <path d="M230.665 103.722C239.093 103.126 247.554 103.184 255.973 103.893" stroke="#263238"
        stroke-linecap="round" stroke-linejoin="round" />
    <path d="M120.309 186.582C120.309 186.582 140.747 176.903 170.316 174.215" stroke="#263238"
        stroke-linecap="round" stroke-linejoin="round" />
    <path d="M154.728 168.832C154.728 168.832 167.101 165.61 185.925 164.529" stroke="#263238"
        stroke-linecap="round" stroke-linejoin="round" />
    <path d="M119.973 237.17C122.457 241.619 126.466 245.02 131.259 246.746" stroke="#263238"
        stroke-linecap="round" stroke-linejoin="round" />
    <path d="M119.29 240.248C119.29 240.248 122.368 245.036 126.472 247.088" stroke="#263238"
        stroke-linecap="round" stroke-linejoin="round" />
    <path d="M220.179 223.148C220.179 223.148 222.231 232.724 230.439 236.828" stroke="#263238"
        stroke-linecap="round" stroke-linejoin="round" />
    <path d="M221.206 231.698C222.832 234.08 225.079 235.973 227.704 237.17" stroke="#263238"
        stroke-linecap="round" stroke-linejoin="round" />
    <path d="M85.8831 250.139C85.8831 250.139 87.9351 253.559 95.1171 253.559" stroke="#263238"
        stroke-linecap="round" stroke-linejoin="round" />
    <path d="M84.5149 252.191C87.1314 254.367 90.3567 255.681 93.7489 255.953" stroke="#263238"
        stroke-linecap="round" stroke-linejoin="round" />
    <path
        d="M176.978 243.75C158.812 244.738 140.78 247.436 123.12 251.808L123.544 252.444C123.544 252.444 138.592 249.25 166.404 256.09C194.215 262.93 196.048 268.402 226.596 268.402C257.143 268.402 286.788 261.11 286.788 261.11L283.08 259.058C255.652 247.451 218.059 241.452 176.978 243.75Z"
        fill="#92E3A9" />
    <path
        d="M176.978 243.75C158.812 244.738 140.78 247.436 123.12 251.808L123.544 252.444C123.544 252.444 138.592 249.25 166.404 256.09C194.215 262.93 196.048 268.402 226.596 268.402C257.143 268.402 286.788 261.11 286.788 261.11L283.08 259.058C255.652 247.451 218.059 241.452 176.978 243.75Z"
        fill="white" opacity="0.5" />
    <path d="M110.056 259.4C110.056 259.4 145.966 253.928 177.088 274.79" stroke="#263238"
        stroke-linecap="round" stroke-linejoin="round" />
    <path d="M147.676 267.266C147.676 267.266 162.382 271.712 171.274 281.288" stroke="#263238"
        stroke-linecap="round" stroke-linejoin="round" />
    <path d="M234.544 249.824C234.544 249.824 255.406 251.876 274.216 263.162" stroke="#263238"
        stroke-linecap="round" stroke-linejoin="round" />
    <path d="M299.592 267.499C303.349 269.798 306.925 272.379 310.29 275.221" stroke="#263238"
        stroke-linecap="round" stroke-linejoin="round" />
    <path
        d="M54.8638 283.634C79.7956 262.43 124.844 246.698 176.978 243.75C224.564 241.048 267.485 249.571 295.31 264.954"
        stroke="#263238" stroke-linecap="round" stroke-linejoin="round" />
    <path d="M206.842 249.482C206.842 249.482 228.388 250.508 242.752 255.296" stroke="#263238"
        stroke-linecap="round" stroke-linejoin="round" />
    <path
        d="M109.153 87.1006C109.153 87.1006 108.469 77.6408 94.6177 77.2988C80.7667 76.9568 84.474 86.7654 80.7598 89.132C77.0457 91.4987 76.0266 87.764 72.3056 90.1444C68.5846 92.5247 70.2536 97.2443 67.2372 97.9214C64.2207 98.5986 60.1372 94.8776 56.4231 97.2374C52.709 99.5972 52.7022 101.629 51.0127 101.629C49.3232 101.629 45.9442 100.261 43.9196 101.629C41.895 102.997 39.5215 104.652 39.5215 104.652H125.021C125.021 104.652 126.034 101.608 122.285 99.5836C118.537 97.5589 116.875 99.2416 115.528 97.5316C114.18 95.8216 119.29 91.4987 109.153 87.1006Z"
        fill="#92E3A9" />
    <path
        d="M159.953 50.8964C159.953 50.8964 159.543 45.2056 151.212 45.0004C142.881 44.7952 145.111 50.6981 142.874 52.1208C140.637 53.5435 140.028 51.3068 137.792 52.7296C135.555 54.1523 136.574 56.9977 134.741 57.4013C132.908 57.8048 130.473 55.575 128.236 56.9977C126 58.4204 126 59.638 124.98 59.638C123.961 59.638 121.93 58.8308 120.712 59.638C119.495 60.4451 118.072 61.4711 118.072 61.4711H169.509C169.509 61.4711 170.118 59.638 167.881 58.4204C165.644 57.2029 164.632 58.2152 163.818 57.2029C163.004 56.1906 166.055 53.5435 159.953 50.8964Z"
        fill="#92E3A9" />
    <path
        d="M109.153 87.1006C109.153 87.1006 108.469 77.6408 94.6177 77.2988C80.7667 76.9568 84.474 86.7654 80.7598 89.132C77.0457 91.4987 76.0266 87.764 72.3056 90.1444C68.5846 92.5247 70.2536 97.2443 67.2372 97.9214C64.2207 98.5986 60.1372 94.8776 56.4231 97.2374C52.709 99.5972 52.7022 101.629 51.0127 101.629C49.3232 101.629 45.9442 100.261 43.9196 101.629C41.895 102.997 39.5215 104.652 39.5215 104.652H125.021C125.021 104.652 126.034 101.608 122.285 99.5836C118.537 97.5589 116.875 99.2416 115.528 97.5316C114.18 95.8216 119.29 91.4987 109.153 87.1006Z"
        fill="white" opacity="0.7" />
    <path
        d="M159.953 50.8964C159.953 50.8964 159.543 45.2056 151.212 45.0004C142.881 44.7952 145.111 50.6981 142.874 52.1208C140.637 53.5435 140.028 51.3068 137.792 52.7296C135.555 54.1523 136.574 56.9977 134.741 57.4013C132.908 57.8048 130.473 55.575 128.236 56.9977C126 58.4204 126 59.638 124.98 59.638C123.961 59.638 121.93 58.8308 120.712 59.638C119.495 60.4451 118.072 61.4711 118.072 61.4711H169.509C169.509 61.4711 170.118 59.638 167.881 58.4204C165.644 57.2029 164.632 58.2152 163.818 57.2029C163.004 56.1906 166.055 53.5435 159.953 50.8964Z"
        fill="white" opacity="0.8" />
</svg>
