<svg fill="none" height="14" viewBox="0 0 13 14" width="13" xmlns="http://www.w3.org/2000/svg">
    <path
        d="M6.05169 2.49157C6.23511 2.11998 6.76498 2.11998 6.94839 2.49157L8.05757 4.73863C8.13034 4.88605 8.27093 4.98828 8.43361 5.01206L10.9148 5.37473C11.3248 5.43465 11.4882 5.93857 11.1914 6.22765L9.39677 7.97559C9.27883 8.09046 9.225 8.25602 9.25283 8.41829L9.67626 10.8871C9.74631 11.2955 9.31754 11.607 8.95073 11.4141L6.73277 10.2477C6.58708 10.1711 6.41301 10.1711 6.26732 10.2477L4.04936 11.4141C3.68254 11.607 3.25377 11.2955 3.32383 10.8871L3.74725 8.41829C3.77508 8.25602 3.72125 8.09046 3.60331 7.97559L1.80871 6.22765C1.51192 5.93857 1.67531 5.43465 2.08527 5.37473L4.56647 5.01206C4.72915 4.98828 4.86974 4.88605 4.94251 4.73863L6.05169 2.49157Z"
        fill="#FFC960" />
</svg>
